GIL06_free2_ik
nRows=3
nColumns=375

# SIMM Motion File Header:
name GIL06_free2_ik
datacolumns 375
datarows 3
otherdata 1
range 0.64167000 0.65833000
endheader
time	pelvis_tx	pelvis_ty	pelvis_tz	pelvis_tilt	pelvis_list	pelvis_rotation	hip_flexion_r	hip_adduction_r	hip_rotation_r	knee_angle_r	ankle_angle_r	hip_flexion_l	hip_adduction_l	hip_rotation_l	knee_angle_l	ankle_angle_l	lumbar_extension	lumbar_bending	lumbar_rotation	subtalar_angle_r	mtp_angle_r	subtalar_angle_l	mtp_angle_l	asis_r_px	asis_r_py	asis_r_pz	asis_l_px	asis_l_py	asis_l_pz	midasis_px	midasis_py	midasis_pz	psis_r_px	psis_r_py	psis_r_pz	psis_l_px	psis_l_py	psis_l_pz	hip_r_px	hip_r_py	hip_r_pz	hip_l_px	hip_l_py	hip_l_pz	midhip_px	midhip_py	midhip_pz	epicondLat_r_px	epicondLat_r_py	epicondLat_r_pz	epicondMed_r_px	epicondMed_r_py	epicondMed_r_pz	thighwand_r_px	thighwand_r_py	thighwand_r_pz	upperleg1_r_px	upperleg1_r_py	upperleg1_r_pz	upperleg2_r_px	upperleg2_r_py	upperleg2_r_pz	malleolusLat_r_px	malleolusLat_r_py	malleolusLat_r_pz	malleolusMedv_r_px	malleolusMedv_r_py	malleolusMedv_r_pz	shankwand_r_px	shankwand_r_py	shankwand_r_pz	lowerleg1_r_px	lowerleg1_r_py	lowerleg1_r_pz	knee_r_px	knee_r_py	knee_r_pz	ankle_r_px	ankle_r_py	ankle_r_pz	toe_r_px	toe_r_py	toe_r_pz	epicondLat_l_px	epicondLat_l_py	epicondLat_l_pz	epicondMed_l_px	epicondMed_l_py	epicondMed_l_pz	thighwand_l_px	thighwand_l_py	thighwand_l_pz	upperleg1_l_px	upperleg1_l_py	upperleg1_l_pz	upperleg2_l_px	upperleg2_l_py	upperleg2_l_pz	malleolusLat_l_px	malleolusLat_l_py	malleolusLat_l_pz	malleolusMedv_l_px	malleolusMedv_l_py	malleolusMedv_l_pz	shankwand_l_px	shankwand_l_py	shankwand_l_pz	lowerleg1_l_px	lowerleg1_l_py	lowerleg1_l_pz	knee_l_px	knee_l_py	knee_l_pz	ankle_l_px	ankle_l_py	ankle_l_pz	toe_l_px	toe_l_py	toe_l_pz	subclavicle_r_px	subclavicle_r_py	subclavicle_r_pz	subclavicle_l_px	subclavicle_l_py	subclavicle_l_pz	neck_px	neck_py	neck_pz	sternalnotch_px	sternalnotch_py	sternalnotch_pz	xyphoidprocess_px	xyphoidprocess_py	xyphoidprocess_pz	midhip_tx	midhip_ty	midhip_tz	hip_r_tx	hip_r_ty	hip_r_tz	hip_l_tx	hip_l_ty	hip_l_tz	knee_r_tx	knee_r_ty	knee_r_tz	knee_l_tx	knee_l_ty	knee_l_tz	ankle_r_tx	ankle_r_ty	ankle_r_tz	ankle_l_tx	ankle_l_ty	ankle_l_tz	midasis_tx	midasis_ty	midasis_tz	asis_r_tx	asis_r_ty	asis_r_tz	asis_l_tx	asis_l_ty	asis_l_tz	psis_r_tx	psis_r_ty	psis_r_tz	psis_l_tx	psis_l_ty	psis_l_tz	epicondLat_r_tx	epicondLat_r_ty	epicondLat_r_tz	epicondLat_l_tx	epicondLat_l_ty	epicondLat_l_tz	epicondMed_r_tx	epicondMed_r_ty	epicondMed_r_tz	epicondMed_l_tx	epicondMed_l_ty	epicondMed_l_tz	malleolusLat_r_tx	malleolusLat_r_ty	malleolusLat_r_tz	malleolusLat_l_tx	malleolusLat_l_ty	malleolusLat_l_tz	malleolusMedv_r_tx	malleolusMedv_r_ty	malleolusMedv_r_tz	malleolusMedv_l_tx	malleolusMedv_l_ty	malleolusMedv_l_tz	neck_tx	neck_ty	neck_tz	subclavicle_r_tx	subclavicle_r_ty	subclavicle_r_tz	subclavicle_l_tx	subclavicle_l_ty	subclavicle_l_tz	sternalnotch_tx	sternalnotch_ty	sternalnotch_tz	xyphoidprocess_tx	xyphoidprocess_ty	xyphoidprocess_tz	thighwand_r_tx	thighwand_r_ty	thighwand_r_tz	thighwand_l_tx	thighwand_l_ty	thighwand_l_tz	upperleg1_r_tx	upperleg1_r_ty	upperleg1_r_tz	upperleg1_l_tx	upperleg1_l_ty	upperleg1_l_tz	upperleg2_r_tx	upperleg2_r_ty	upperleg2_r_tz	upperleg2_l_tx	upperleg2_l_ty	upperleg2_l_tz	shankwand_r_tx	shankwand_r_ty	shankwand_r_tz	shankwand_l_tx	shankwand_l_ty	shankwand_l_tz	lowerleg1_r_tx	lowerleg1_r_ty	lowerleg1_r_tz	lowerleg1_l_tx	lowerleg1_l_ty	lowerleg1_l_tz	toe_r_tx	toe_r_ty	toe_r_tz	toe_l_tx	toe_l_ty	toe_l_tz	ground_force_vx	ground_force_vy	ground_force_vz	ground_force_px	ground_force_py	ground_force_pz	ground_force_vx	ground_force_vy	ground_force_vz	ground_force_px	ground_force_py	ground_force_pz	ground_torque_x	ground_torque_y	ground_torque_z	ground_torque_x	ground_torque_y	ground_torque_z	ground_marker_px	ground_marker_py	ground_marker_pz	ground_marker_px	ground_marker_py	ground_marker_pz	ground_marker_px	ground_marker_py	ground_marker_pz	ground_marker_px	ground_marker_py	ground_marker_pz	ground_marker_px	ground_marker_py	ground_marker_pz	ground_marker_px	ground_marker_py	ground_marker_pz	ground_marker_px	ground_marker_py	ground_marker_pz	ground_marker_px	ground_marker_py	ground_marker_pz	ground_marker_px	ground_marker_py	ground_marker_pz	ground_marker_px	ground_marker_py	ground_marker_pz	ground_marker_px	ground_marker_py	ground_marker_pz	ground_marker_px	ground_marker_py	ground_marker_pz	ground_marker_px	ground_marker_py	ground_marker_pz	ground_marker_px	ground_marker_py	ground_marker_pz	ground_marker_px	ground_marker_py	ground_marker_pz	ground_marker_px	ground_marker_py	ground_marker_pz	ground_marker_px	ground_marker_py	ground_marker_pz	ground_marker_px	ground_marker_py	ground_marker_pz	ground_marker_px	ground_marker_py	ground_marker_pz	ground_marker_px	ground_marker_py	ground_marker_pz	ground_marker_px	ground_marker_py	ground_marker_pz	ground_marker_px	ground_marker_py	ground_marker_pz	ground_marker_px	ground_marker_py	ground_marker_pz	ground_marker_px	ground_marker_py	ground_marker_pz	ground_marker_px	ground_marker_py	ground_marker_pz	ground_marker_px	ground_marker_py	ground_marker_pz	ground_marker_px	ground_marker_py	ground_marker_pz	ground_marker_px	ground_marker_py	ground_marker_pz	ground_marker_px	ground_marker_py	ground_marker_pz	ground_marker_px	ground_marker_py	ground_marker_pz	ground_marker_px	ground_marker_py	ground_marker_pz	ground_marker_px	ground_marker_py	ground_marker_pz	ground_marker_px	ground_marker_py	ground_marker_pz	ground_marker_px	ground_marker_py	ground_marker_pz	ground_marker_px	ground_marker_py	ground_marker_pz	ground_marker_px	ground_marker_py	ground_marker_pz	ground_marker_px	ground_marker_py	ground_marker_pz
      0.64167000	      0.68923416	      0.82162574	     -0.25470197	     -4.72114212	     -2.52931484	      1.19184068	     29.48068393	      4.92794277	      6.38851837	    -19.97940596	     -7.25133882	     -8.07870908	     -3.69085362	     -4.28304515	    -30.11653014	     -6.45701063	      9.31948503	      0.33432422	      6.66480890	      0.00000000	      0.00000000	      0.00000000	      0.00000000	      0.74815270	      0.81043551	     -0.13850256	      0.74074724	      0.79929942	     -0.38405929	      0.70263366	      0.82050674	     -0.25498144	      0.51375068	      0.91291405	     -0.22538056	      0.50774279	      0.90910710	     -0.28016477	      0.61829952	      0.76744488	     -0.17036995	      0.61439135	      0.76066531	     -0.33060690	      0.61634543	      0.76405509	     -0.25048842	      0.78798360	      0.41977007	     -0.13397782	      0.74359278	      0.41850354	     -0.27213442	      0.86485647	      0.62639395	     -0.15069165	      0.81769636	      0.63031951	     -0.16271811	      0.82237214	      0.55296773	     -0.17011097	      0.79925153	      0.05760875	     -0.14444268	      0.80285501	      0.06536997	     -0.22070444	      0.87365364	      0.21280710	     -0.17744792	      0.82627812	      0.21443187	     -0.18312635	      0.77025651	      0.43285790	     -0.19147363	      0.80125654	      0.06581257	     -0.19250454	      0.91077580	      0.03764940	     -0.19244605	      0.51962910	      0.39736392	     -0.40370380	      0.53161436	      0.37769405	     -0.25688498	      0.73971871	      0.52888931	     -0.36793300	      0.69675146	      0.55484524	     -0.36824118	      0.66399730	      0.48871657	     -0.36468862	      0.25414374	      0.13858601	     -0.36557196	      0.28633016	      0.13440556	     -0.29249943	      0.31235695	      0.23414683	     -0.43160694	      0.32858785	      0.23686176	     -0.38556852	      0.53288495	      0.40043274	     -0.33723874	      0.28244007	      0.13053384	     -0.32645537	      0.32667022	      0.04289533	     -0.35304670	      0.63237842	      1.26728579	     -0.22457993	      0.62907694	      1.26837317	     -0.30643667	      0.48849075	      1.30095346	     -0.25715387	      0.61529389	      1.25856529	     -0.27719396	      0.68376549	      1.20007041	     -0.27953425	      0.61307300	      0.75780100	     -0.25155000	      0.59622200	      0.76422600	     -0.17195000	      0.59178400	      0.75858000	     -0.32741400	      0.76119100	      0.41744700	     -0.19642700	      0.51753200	      0.40426800	     -0.33698100	      0.79803100	      0.06069200	     -0.19458800	      0.27106500	      0.12660700	     -0.32142100	      0.72160200	      0.83359900	     -0.25594600	      0.72513800	      0.83809600	     -0.13209000	      0.71806700	      0.82910200	     -0.37980200	      0.47894700	      0.90522200	     -0.21988100	      0.47575000	      0.90360000	     -0.27455500	      0.77298300	      0.41807900	     -0.12590900	      0.51131500	      0.40749200	     -0.40813700	      0.74374600	      0.41616600	     -0.26868500	      0.52351300	      0.40063300	     -0.24702200	      0.79527600	      0.06060600	     -0.15618700	      0.25830300	      0.13590600	     -0.35762700	      0.80065500	      0.06947100	     -0.23170700	      0.27575100	      0.14585500	     -0.28070600	      0.49609600	      1.32282000	     -0.25975200	      0.62772700	      1.26235900	     -0.22153300	      0.62718900	      1.26676100	     -0.30376000	      0.61082000	      1.25886600	     -0.27494500	      0.66722500	      1.18849500	     -0.27796100	      0.84853000	      0.61874300	     -0.13113400	      0.73660700	      0.55145400	     -0.35366500	      0.80485900	      0.62420400	     -0.14531600	      0.69302200	      0.57569600	     -0.35601100	      0.81152300	      0.54777700	     -0.15530400	      0.65975200	      0.50888300	     -0.35217200	      0.87309800	      0.21332200	     -0.18173700	      0.32548600	      0.21715500	     -0.43013200	      0.82679800	      0.21462200	     -0.18767100	      0.33192700	      0.22833200	     -0.38391900	      0.90861900	      0.04675200	     -0.19598500	      0.33170000	      0.04910600	     -0.32102200	   -136.98496446	    616.40155857	    -26.45771176	      0.80656134	      0.00000000	     -0.19265076	     85.22459643	    201.45413281	    -13.98322402	      0.33834979	      0.00000000	     -0.30588193	      0.00000000	     -1.29748035	      0.00000000	      0.00000000	     -0.89394312	      0.00000000	      0.61307341	      0.75780058	     -0.25155044	      0.59622151	      0.76422554	     -0.17195025	      0.59178394	      0.75858045	     -0.32741365	      0.76119095	      0.41744673	     -0.19642746	      0.51753175	      0.40426770	     -0.33698097	      0.79803061	      0.06069192	     -0.19458792	      0.27106482	      0.12660742	     -0.32142076	      0.72160238	      0.83359909	     -0.25594571	      0.72513777	      0.83809650	     -0.13208991	      0.71806699	      0.82910174	     -0.37980151	      0.47894689	      0.90522194	     -0.21988101	      0.47575027	      0.90359992	     -0.27455494	      0.77298290	      0.41807896	     -0.12590937	      0.51131475	      0.40749198	     -0.40813714	      0.74374574	      0.41616595	     -0.26868516	      0.52351260	      0.40063336	     -0.24702176	      0.79527622	      0.06060550	     -0.15618667	      0.25830305	      0.13590644	     -0.35762733	      0.80065501	      0.06947094	     -0.23170683	      0.27575147	      0.14585496	     -0.28070554	      0.49609575	      1.32281959	     -0.25975209	      0.62772709	      1.26235914	     -0.22153260	      0.62718892	      1.26676071	     -0.30375966	      0.61081982	      1.25886631	     -0.27494508	      0.66722524	      1.18849492	     -0.27796113	      0.84853029	      0.61874330	     -0.13113391	      0.73660743	      0.55145413	     -0.35366508	      0.80485886	      0.62420362	     -0.14531645	      0.69302154	      0.57569569	     -0.35601097	      0.81152266	      0.54777706	     -0.15530421	      0.65975213	      0.50888330	     -0.35217240	      0.87309784	      0.21332237	     -0.18173715	      0.32548618	      0.21715532	     -0.43013245	      0.82679784	      0.21462168	     -0.18767084	      0.33192712	      0.22833230	     -0.38391891	      0.90861869	      0.04675196	     -0.19598494	      0.33169982	      0.04910607	     -0.32102227
      0.65000000	      0.69984725	      0.82323785	     -0.25182128	     -4.36710433	     -2.87264249	      0.88293717	     28.60854095	      5.74510936	      7.03333070	    -20.63148294	     -6.28655624	     -7.53976254	     -4.56045314	     -4.34954907	    -32.60058000	     -9.72796546	      9.00658120	      0.69264173	      7.09458458	      0.00000000	      0.00000000	      0.00000000	      0.00000000	      0.75826464	      0.81316987	     -0.13526674	      0.75213762	      0.80041880	     -0.38078014	      0.71325487	      0.82220352	     -0.25202827	      0.52363958	      0.91357795	     -0.22394165	      0.51792554	      0.90938267	     -0.27872893	      0.62884820	      0.76914018	     -0.16749006	      0.62577111	      0.76131270	     -0.32769736	      0.62730965	      0.76522644	     -0.24759371	      0.79589387	      0.41995390	     -0.13343804	      0.75004002	      0.41930051	     -0.27112026	      0.87437003	      0.62593425	     -0.15063708	      0.82712149	      0.63028666	     -0.16215894	      0.83105008	      0.55290982	     -0.16972246	      0.79984202	      0.05753162	     -0.14388050	      0.80280230	      0.06520696	     -0.22017863	      0.87696258	      0.21121616	     -0.17771874	      0.82957195	      0.21378056	     -0.18290297	      0.77781468	      0.43327471	     -0.19074696	      0.80150751	      0.06568594	     -0.19196374	      0.91092995	      0.03715988	     -0.19275778	      0.53720561	      0.39723999	     -0.40462687	      0.54854092	      0.37645003	     -0.25791081	      0.75496427	      0.53186880	     -0.36623209	      0.71159754	      0.55715089	     -0.36659729	      0.67986367	      0.49048867	     -0.36384662	      0.26453560	      0.14555224	     -0.36917873	      0.29623719	      0.14009726	     -0.29597839	      0.32567552	      0.23982713	     -0.43441232	      0.34174954	      0.24184832	     -0.38828326	      0.55022628	      0.39947635	     -0.33808970	      0.29240828	      0.13651564	     -0.32997311	      0.32940909	      0.04526223	     -0.35542244	      0.64233682	      1.26835153	     -0.22310272	      0.63880334	      1.26936416	     -0.30495073	      0.49833876	      1.30190975	     -0.25529962	      0.62510853	      1.25957463	     -0.27566045	      0.69360606	      1.20111597	     -0.27814232	      0.62435900	      0.75916300	     -0.24923100	      0.60700900	      0.76594500	     -0.16978500	      0.60337200	      0.75926100	     -0.32522800	      0.76855300	      0.41807000	     -0.19617800	      0.53430800	      0.40235900	     -0.33903800	      0.79816600	      0.06073000	     -0.19486900	      0.28080600	      0.13181600	     -0.32247500	      0.73236100	      0.83556600	     -0.25361900	      0.73524800	      0.84087200	     -0.13022100	      0.72947300	      0.83026000	     -0.37701600	      0.48893700	      0.90595000	     -0.21953800	      0.48611100	      0.90383200	     -0.27422300	      0.78109700	      0.41855400	     -0.12578900	      0.52855300	      0.40622700	     -0.41020100	      0.74862900	      0.41859300	     -0.26809000	      0.54298100	      0.39642600	     -0.24805400	      0.79592500	      0.06068500	     -0.15643400	      0.26816800	      0.14144400	     -0.35863900	      0.79957300	      0.06957700	     -0.23201800	      0.28660300	      0.15036500	     -0.28175200	      0.50618000	      1.32403700	     -0.25787700	      0.63763200	      1.26410900	     -0.22006500	      0.63671500	      1.26819100	     -0.30218600	      0.62055300	      1.26021400	     -0.27367200	      0.67698200	      1.19008500	     -0.27633200	      0.85820300	      0.61964300	     -0.13151800	      0.75129200	      0.55361300	     -0.35257600	      0.81401200	      0.62558300	     -0.14531300	      0.70719100	      0.57709000	     -0.35508800	      0.81973600	      0.54931000	     -0.15560200	      0.67643900	      0.50997000	     -0.35182700	      0.87653800	      0.21165600	     -0.18300300	      0.33705000	      0.22058000	     -0.43134000	      0.82996300	      0.21371900	     -0.18804300	      0.34442900	      0.23146900	     -0.38506800	      0.90919000	      0.04633300	     -0.19640000	      0.33547200	      0.04939500	     -0.32092800	   -140.97284330	    647.58622729	    -27.45891536	      0.80959937	      0.00000000	     -0.19310402	     55.75003341	    125.88977766	    -12.14609232	      0.34283197	      0.00000000	     -0.30460056	      0.00000000	     -1.67755933	      0.00000000	      0.00000000	     -0.81502771	      0.00000000	      0.62435889	      0.75916344	     -0.24923089	      0.60700923	      0.76594478	     -0.16978467	      0.60337234	      0.75926107	     -0.32522765	      0.76855320	      0.41806963	     -0.19617806	      0.53430754	      0.40235934	     -0.33903775	      0.79816598	      0.06073032	     -0.19486867	      0.28080574	      0.13181593	     -0.32247517	      0.73236060	      0.83556628	     -0.25361878	      0.73524767	      0.84087217	     -0.13022119	      0.72947347	      0.83026046	     -0.37701640	      0.48893690	      0.90594959	     -0.21953756	      0.48611110	      0.90383244	     -0.27422345	      0.78109717	      0.41855425	     -0.12578869	      0.52855307	      0.40622655	     -0.41020080	      0.74862903	      0.41859338	     -0.26808968	      0.54298097	      0.39642638	     -0.24805433	      0.79592538	      0.06068547	     -0.15643394	      0.26816788	      0.14144376	     -0.35863921	      0.79957300	      0.06957741	     -0.23201755	      0.28660288	      0.15036453	     -0.28175175	      0.50617957	      1.32403731	     -0.25787735	      0.63763201	      1.26410937	     -0.22006503	      0.63671476	      1.26819122	     -0.30218601	      0.62055320	      1.26021409	     -0.27367151	      0.67698163	      1.19008493	     -0.27633214	      0.85820299	      0.61964262	     -0.13151848	      0.75129175	      0.55361336	     -0.35257563	      0.81401241	      0.62558264	     -0.14531291	      0.70719105	      0.57709038	     -0.35508806	      0.81973553	      0.54931009	     -0.15560167	      0.67643887	      0.50997049	     -0.35182688	      0.87653756	      0.21165609	     -0.18300311	      0.33705038	      0.22057952	     -0.43134007	      0.82996255	      0.21371940	     -0.18804282	      0.34442851	      0.23146942	     -0.38506809	      0.90918988	      0.04633297	     -0.19639978	      0.33547184	      0.04939526	     -0.32092783
      0.65833000	      0.71030313	      0.82490283	     -0.24893999	     -3.99559870	     -3.22743645	      0.56704635	     27.63279603	      6.57457535	      7.74412798	    -21.13029489	     -5.29407882	     -6.92363551	     -5.45789411	     -4.43245252	    -35.13629428	    -13.10137440	      8.64718406	      0.99487300	      7.59384624	      0.00000000	      0.00000000	      0.00000000	      0.00000000	      0.76819655	      0.81599677	     -0.13202997	      0.76339863	      0.80159406	     -0.37748161	      0.72371831	      0.82395827	     -0.24907288	      0.53334987	      0.91422468	     -0.22254106	      0.52794170	      0.90963135	     -0.27732747	      0.63924549	      0.77087843	     -0.16461113	      0.63703233	      0.76197943	     -0.32477675	      0.63813891	      0.76642893	     -0.24469394	      0.80318652	      0.42000363	     -0.13290839	      0.75578203	      0.42000385	     -0.27006600	      0.88350662	      0.62522006	     -0.15071614	      0.83617698	      0.63005753	     -0.16169914	      0.83925132	      0.55265653	     -0.16940948	      0.80030047	      0.05748745	     -0.14329858	      0.80254698	      0.06510299	     -0.21962705	      0.87986593	      0.20971770	     -0.17803810	      0.83247571	      0.21315790	     -0.18269172	      0.78470180	      0.43357137	     -0.19001160	      0.80157754	      0.06560721	     -0.19139956	      0.91094697	      0.03691950	     -0.19312596	      0.55532083	      0.39714802	     -0.40559885	      0.56612491	      0.37519646	     -0.25901196	      0.77045268	      0.53519168	     -0.36460924	      0.72665323	      0.55971586	     -0.36501318	      0.69607451	      0.49248763	     -0.36307324	      0.27592018	      0.15248055	     -0.37274357	      0.30716544	      0.14575196	     -0.29945308	      0.33981242	      0.24547760	     -0.43716867	      0.35574548	      0.24679808	     -0.39096539	      0.56813345	      0.39852183	     -0.33900587	      0.30338187	      0.14247409	     -0.33348350	      0.33275186	      0.04820679	     -0.35787597	      0.65231242	      1.26945039	     -0.22212743	      0.64847311	      1.27028850	     -0.30396364	      0.50819187	      1.30292731	     -0.25385747	      0.63488875	      1.26056013	     -0.27460163	      0.70338216	      1.20210235	     -0.27721498	      0.63548800	      0.76058500	     -0.24688300	      0.61763300	      0.76772900	     -0.16760700	      0.61481700	      0.75997600	     -0.32301800	      0.77525800	      0.41856700	     -0.19590800	      0.55161500	      0.40035600	     -0.34114500	      0.79811100	      0.06076800	     -0.19511500	      0.29162200	      0.13701400	     -0.32355000	      0.74293600	      0.83762100	     -0.25128900	      0.74516300	      0.84375200	     -0.12838600	      0.74070900	      0.83148900	     -0.37419200	      0.49878000	      0.90664000	     -0.21912600	      0.49629500	      0.90408100	     -0.27380400	      0.78860800	      0.41890000	     -0.12566600	      0.54627300	      0.40488200	     -0.41230100	      0.75388200	      0.42029200	     -0.26763800	      0.56230100	      0.39194900	     -0.24928800	      0.79637700	      0.06074200	     -0.15665400	      0.27910600	      0.14695800	     -0.35967000	      0.79882800	      0.06996400	     -0.23232700	      0.29804800	      0.15528900	     -0.28281400	      0.51628700	      1.32523800	     -0.25664100	      0.64761000	      1.26565800	     -0.21898900	      0.64612000	      1.26964000	     -0.30112400	      0.63026700	      1.26159300	     -0.27243800	      0.68664400	      1.19160500	     -0.27544600	      0.86755500	      0.62019400	     -0.13205200	      0.76611100	      0.55600700	     -0.35155600	      0.82284100	      0.62627400	     -0.14533400	      0.72104500	      0.57812900	     -0.35397900	      0.82796000	      0.55026000	     -0.15605600	      0.69273400	      0.51099800	     -0.35151600	      0.87961400	      0.21010700	     -0.18421500	      0.34946200	      0.22390200	     -0.43254100	      0.83333700	      0.21354700	     -0.18871300	      0.35748200	      0.23467400	     -0.38635900	      0.90960300	      0.04611200	     -0.19673700	      0.33988100	      0.05011700	     -0.32082200	   -142.17938445	    675.76962032	    -28.03268105	      0.81254010	      0.00000000	     -0.19366656	     28.84269444	     69.75061806	     -8.03312569	      0.34983850	      0.00000000	     -0.30247647	      0.00000000	     -2.06446851	      0.00000000	      0.00000000	     -0.64955994	      0.00000000	      0.63548845	      0.76058543	     -0.24688277	      0.61763316	      0.76772881	     -0.16760746	      0.61481708	      0.75997573	     -0.32301784	      0.77525759	      0.41856676	     -0.19590752	      0.55161464	      0.40035641	     -0.34114465	      0.79811096	      0.06076759	     -0.19511530	      0.29162246	      0.13701354	     -0.32354984	      0.74293613	      0.83762074	     -0.25128883	      0.74516320	      0.84375209	     -0.12838568	      0.74070913	      0.83148932	     -0.37419200	      0.49877977	      0.90664005	     -0.21912636	      0.49629521	      0.90408057	     -0.27380428	      0.78860795	      0.41890046	     -0.12566577	      0.54627335	      0.40488181	     -0.41230112	      0.75388199	      0.42029226	     -0.26763779	      0.56230110	      0.39194888	     -0.24928790	      0.79637694	      0.06074200	     -0.15665437	      0.27910575	      0.14695762	     -0.35967043	      0.79882836	      0.06996374	     -0.23232715	      0.29804841	      0.15528935	     -0.28281394	      0.51628673	      1.32523799	     -0.25664139	      0.64761037	      1.26565814	     -0.21898855	      0.64612031	      1.26963997	     -0.30112445	      0.63026702	      1.26159275	     -0.27243823	      0.68664402	      1.19160509	     -0.27544641	      0.86755461	      0.62019402	     -0.13205250	      0.76611090	      0.55600697	     -0.35155636	      0.82284135	      0.62627405	     -0.14533444	      0.72104508	      0.57812887	     -0.35397914	      0.82796001	      0.55026019	     -0.15605564	      0.69273412	      0.51099837	     -0.35151577	      0.87961364	      0.21010736	     -0.18421532	      0.34946218	      0.22390203	     -0.43254068	      0.83333707	      0.21354678	     -0.18871307	      0.35748199	      0.23467363	     -0.38635939	      0.90960330	      0.04611172	     -0.19673693	      0.33988133	      0.05011665	     -0.32082233
